<svg xmlns="http://www.w3.org/2000/svg" xmlns:xlink="http://www.w3.org/1999/xlink"><defs><path id="a" d="M873 7893.62l-2.84-2.63-9.2 8.94-5.18-4.91-2.78 2.6 7.96 7.39z"/></defs><symbol id="icon-arr-top" viewBox="0 0 261.808 261.808"><path d="M260.485 160.384L135.686 19.409c-2.42-2.73-6.331-2.736-8.757-.011L1.33 160.389c-2.426 2.73-1.441 4.928 2.203 4.928h79.144v72.546a6.587 6.587 0 0 0 6.592 6.587h83.267a6.59 6.59 0 0 0 6.592-6.587v-72.546h79.138c3.644 0 4.64-2.203 2.219-4.933z"/></symbol><symbol id="icon-check" viewBox="0 0 23 18"><use xlink:href="#a" transform="translate(-852 -7889)"/></symbol><symbol id="icon-close" viewBox="0 0 348.333 348.334"><path d="M336.559 68.611L231.016 174.165l105.543 105.549c15.699 15.705 15.699 41.145 0 56.85-7.844 7.844-18.128 11.769-28.407 11.769-10.296 0-20.581-3.919-28.419-11.769L174.167 231.003 68.609 336.563c-7.843 7.844-18.128 11.769-28.416 11.769-10.285 0-20.563-3.919-28.413-11.769-15.699-15.698-15.699-41.139 0-56.85l105.54-105.549L11.774 68.611c-15.699-15.699-15.699-41.145 0-56.844 15.696-15.687 41.127-15.687 56.829 0l105.563 105.554L279.721 11.767c15.705-15.687 41.139-15.687 56.832 0 15.705 15.699 15.705 41.145.006 56.844z"/></symbol><symbol id="icon-facebook" viewBox="0 0 155.139 155.139"><path d="M89.584 155.139V84.378h23.742l3.562-27.585H89.584V39.184c0-7.984 2.208-13.425 13.67-13.425l14.595-.006V1.08C115.325.752 106.661 0 96.577 0 75.52 0 61.104 12.853 61.104 36.452v20.341H37.29v27.585h23.814v70.761h28.48z"/></symbol><symbol id="icon-instagram" viewBox="0 0 16 16"><path d="M8 0C5.827 0 5.555.01 4.702.048 3.85.088 3.27.222 2.76.42a3.908 3.908 0 0 0-1.417.923c-.445.444-.72.89-.923 1.417-.198.51-.333 1.09-.372 1.942C.008 5.555 0 5.827 0 8s.01 2.445.048 3.298c.04.852.174 1.433.372 1.942.204.526.478.973.923 1.417.444.445.89.72 1.417.923.51.198 1.09.333 1.942.372.853.04 1.125.048 3.298.048s2.445-.01 3.298-.048c.852-.04 1.433-.174 1.942-.372a3.908 3.908 0 0 0 1.417-.923c.445-.444.72-.89.923-1.417.198-.51.333-1.09.372-1.942.04-.853.048-1.125.048-3.298s-.01-2.445-.048-3.298c-.04-.852-.174-1.433-.372-1.942a3.908 3.908 0 0 0-.923-1.417A3.886 3.886 0 0 0 13.24.42c-.51-.198-1.09-.333-1.942-.372C10.445.008 10.173 0 8 0zm0 1.44c2.136 0 2.39.01 3.233.048.78.036 1.203.166 1.485.276.374.145.64.318.92.598.28.28.453.546.598.92.11.282.24.705.276 1.485.038.844.047 1.097.047 3.233s-.01 2.39-.05 3.233c-.04.78-.17 1.203-.28 1.485-.15.374-.32.64-.6.92-.28.28-.55.453-.92.598-.28.11-.71.24-1.49.276-.85.038-1.1.047-3.24.047s-2.39-.01-3.24-.05c-.78-.04-1.21-.17-1.49-.28a2.49 2.49 0 0 1-.92-.6c-.28-.28-.46-.55-.6-.92-.11-.28-.24-.71-.28-1.49-.03-.84-.04-1.1-.04-3.23s.01-2.39.04-3.24c.04-.78.17-1.21.28-1.49.14-.38.32-.64.6-.92.28-.28.54-.46.92-.6.28-.11.7-.24 1.48-.28.85-.03 1.1-.04 3.24-.04zm0 2.452a4.108 4.108 0 1 0 0 8.215 4.108 4.108 0 0 0 0-8.215zm0 6.775a2.667 2.667 0 1 1 0-5.334 2.667 2.667 0 0 1 0 5.334zm5.23-6.937a.96.96 0 1 1-1.92 0 .96.96 0 0 1 1.92 0z"/></symbol><symbol id="icon-left-arrow" viewBox="0 0 405.456 405.456"><path d="M341.31 74.135c-.078-4.985-2.163-9.911-5.688-13.438l-55-55C277.023 2.096 271.963 0 266.872 0s-10.151 2.096-13.75 5.697L69.841 188.978c-3.601 3.599-5.697 8.659-5.697 13.75s2.096 10.151 5.697 13.75l183.281 183.281c3.599 3.601 8.659 5.697 13.75 5.697s10.151-2.096 13.75-5.697l55-55c3.591-3.598 5.681-8.651 5.681-13.734s-2.09-10.136-5.681-13.734L221.06 202.728 335.622 88.166c3.665-3.667 5.765-8.848 5.688-14.031z"/></symbol><symbol id="icon-quote" viewBox="0 0 508.044 508.044"><path d="M507.93 155.673c0-.055.006-.11.006-.165 0-66.793-54.145-120.938-120.938-120.938S266.061 88.714 266.061 155.508c0 66.794 54.15 120.938 120.938 120.938 13.727 0 26.867-2.393 39.162-6.609-27.209 156.09-148.93 256.752-36.096 173.905C515.182 351.874 508.07 159.198 507.93 155.673z"/><path d="M120.938 276.445c13.727 0 26.867-2.393 39.168-6.609-27.216 156.09-148.937 256.752-36.102 173.905 125.117-91.867 118.006-284.543 117.865-288.068 0-.055.006-.11.006-.165 0-66.793-54.144-120.938-120.937-120.938C54.144 34.57 0 88.714 0 155.508c0 66.794 54.15 120.937 120.938 120.937z"/></symbol><symbol id="icon-right-arrow" viewBox="0 0 405.457 405.457"><path d="M64.147 331.322c.078 4.985 2.163 9.911 5.688 13.438l55 55c3.599 3.601 8.659 5.697 13.75 5.697 5.091 0 10.151-2.096 13.75-5.697l183.281-183.282c3.601-3.599 5.697-8.659 5.697-13.75s-2.096-10.151-5.697-13.75L152.335 5.697C148.736 2.096 143.676 0 138.585 0c-5.091 0-10.151 2.096-13.75 5.697l-55 55c-3.591 3.598-5.681 8.651-5.681 13.734s2.09 10.136 5.681 13.734l114.562 114.563L69.835 317.291c-3.664 3.667-5.765 8.848-5.688 14.031z"/></symbol><symbol id="icon-search" viewBox="0 0 250.313 250.313"><path d="M244.186 214.604l-54.379-54.378c-.289-.289-.628-.491-.93-.76 10.7-16.231 16.945-35.66 16.945-56.554C205.822 46.075 159.747 0 102.911 0S0 46.075 0 102.911c0 56.835 46.074 102.911 102.91 102.911 20.895 0 40.323-6.245 56.554-16.945.269.301.47.64.759.929l54.38 54.38c8.169 8.168 21.413 8.168 29.583 0 8.168-8.169 8.168-21.413 0-29.582zm-141.275-44.458c-37.134 0-67.236-30.102-67.236-67.235 0-37.134 30.103-67.236 67.236-67.236 37.132 0 67.235 30.103 67.235 67.236s-30.103 67.235-67.235 67.235z" fill-rule="evenodd" clip-rule="evenodd"/></symbol><symbol id="icon-triangle-r" viewBox="0 0 415.346 415.346"><path d="M41.712 415.346c-11.763 0-21.3-9.537-21.3-21.3V21.299C20.412 9.536 29.949 0 41.712 0l346.122 191.697s15.975 15.975 0 31.951C371.859 239.622 41.712 415.346 41.712 415.346z"/></symbol><symbol id="icon-vk" viewBox="0 0 16 16"><path d="M7.828 12.526h.957s.288-.032.436-.19c.14-.147.14-.42.14-.42s-.02-1.284.58-1.473c.59-.187 1.34 1.24 2.14 1.788.61.42 1.07.33 1.07.33l2.14-.03s1.12-.07.59-.95c-.04-.07-.3-.65-1.58-1.84-1.34-1.24-1.16-1.04.45-3.19.98-1.31 1.38-2.11 1.25-2.45-.11-.32-.84-.24-.84-.24l-2.4.02s-.18-.02-.31.06-.21.26-.21.26-.38 1.02-.89 1.88C10.27 7.9 9.84 8 9.67 7.88c-.403-.26-.3-1.053-.3-1.62 0-1.76.27-2.5-.52-2.69-.26-.06-.454-.1-1.123-.11-.86-.01-1.585.006-1.996.207-.27.135-.48.434-.36.45.16.02.52.098.71.358.25.337.24 1.09.24 1.09s.14 2.077-.33 2.335c-.33.174-.77-.187-1.73-1.837-.49-.84-.86-1.78-.86-1.78s-.07-.17-.2-.27c-.15-.11-.37-.15-.37-.15l-2.29.02s-.34.01-.46.16c-.11.13-.01.41-.01.41s1.79 4.19 3.82 6.3c1.86 1.935 3.97 1.81 3.97 1.81z"/></symbol></svg>