<svg xmlns="http://www.w3.org/2000/svg" xmlns:xlink="http://www.w3.org/1999/xlink"><defs><path id="a" d="M257 1124v-32h32v32zm4-16a12 12 0 1 0 24 0 12 12 0 0 0-24 0z"/><path id="b" d="M273 1096a12 12 0 1 1 0 24 12 12 0 0 1 0-24z"/><path id="d" d="M273 1102a6 6 0 1 1 0 12 6 6 0 0 1 0-12z"/><clipPath id="c"><use xlink:href="#a"/></clipPath><path id="a" d="M1416 220v-1h71v1z"/><path id="b" d="M1416 174v-1h194v1z"/><path id="c" d="M1406.36 259.35l-.72-.7 39-40 .72.7z"/><path id="d" d="M1407.5 248a9.5 9.5 0 1 1 0 19 9.5 9.5 0 0 1 0-19z"/><path id="a" d="M1288.84 365.79v-69.11h31.84v17.28h-17.37v34.55h17.37v17.28zm23.15-46.08h11.58v5.76h-5.79V337h5.79v5.76h-11.58zm11.58 8.64h5.79v5.76h-5.79zm5.79-8.64h11.58v23.04h-11.58v-5.76h5.79v-11.52h-5.8zm2.9-23.03h31.83v69.1h-31.84v-17.27h17.37v-34.55h-17.37z"/></defs><symbol id="icon-circle" viewBox="0 0 32 32"><g transform="translate(-257 -1092)"><use xlink:href="#b"/><use fill-opacity="0" stroke-linecap="round" stroke-linejoin="round" stroke-miterlimit="50" stroke-width="8" clip-path="url(&quot;#c&quot;)" xlink:href="#b"/></g><use xlink:href="#d" transform="translate(-257 -1092)"/></symbol><symbol id="icon-screen-tooltip-bg" viewBox="0 0 212 94"><use xlink:href="#a" transform="translate(-1398 -173)"/><use xlink:href="#b" transform="translate(-1398 -173)"/><use xlink:href="#c" transform="translate(-1398 -173)"/><use xlink:href="#d" transform="translate(-1398 -173)"/></symbol><symbol id="icon-squares" viewBox="0 0 76 70"><use xlink:href="#a" opacity=".63" transform="translate(-1288 -296)"/></symbol></svg>